<?xml version="1.0" encoding="utf-8"?>
<!-- Generator: Adobe Illustrator 21.0.2, SVG Export Plug-In . SVG Version: 6.00 Build 0)  -->
<svg version="1.1" id="Layer_1" xmlns="http://www.w3.org/2000/svg" xmlns:xlink="http://www.w3.org/1999/xlink" x="0px" y="0px"
	 viewBox="0 0 30 30" style="enable-background:new 0 0 30 30;" xml:space="preserve">
<linearGradient id="SVGID_1_" gradientUnits="userSpaceOnUse" x1="0" y1="15" x2="30" y2="15" gradientTransform="matrix(6.123234e-17 -1 1 6.123234e-17 0 30)">
	<stop  offset="0" style="stop-color:#C9C9C9"/>
	<stop  offset="0.3155" style="stop-color:#C7CBCE"/>
	<stop  offset="0.6899" style="stop-color:#C0D0DC"/>
	<stop  offset="1" style="stop-color:#B7D6EE"/>
</linearGradient>
<polygon style="fill:url(#SVGID_1_);" points="30,0 30,30 0,30 0,0 "/>
<circle style="fill:none;" cx="15.043" cy="15.167" r="13.957"/>
<path style="fill:#30599C;" d="M11.339,11.398c0,0-0.918-1.235-0.827-2.631c0.066-1.005,0.656-2.104,1.801-2.174
	c0,0-0.24,0.784,0.514,0.442L11.339,11.398z"/>
<g>
	<defs>
		<rect id="SVGID_2_" x="0" y="0" width="30" height="30.63"/>
	</defs>
	<clipPath id="SVGID_3_">
		<use xlink:href="#SVGID_2_"  style="overflow:visible;"/>
	</clipPath>
	<g style="clip-path:url(#SVGID_3_);">
		<g>
			<path style="fill:#555B5E;" d="M17.798,61.198c0,0,0.07,1.057-0.916,2.115c-0.987,1.057-1.621,2.256-1.128,3.172
				s2.679,0.634,3.525-0.07s0.705-1.41,1.48-2.397s0.916-1.551,0.634-2.608S19.067,60.634,17.798,61.198z"/>
			<path style="fill:#555B5E;" d="M10.396,59.083c0,0-0.141,1.057-1.198,1.833s-1.621,1.551-1.48,2.749
				c0.141,1.198,2.115,1.057,3.102,0.564s0.775-0.987,1.48-1.762s1.198-0.846,1.339-1.692s-0.07-1.762-0.493-1.903
				C12.722,58.73,11.806,58.096,10.396,59.083z"/>
			<path style="fill:#0C98BB;" d="M9.832,36.385c0,0,0.235,19.596,0.517,23.074c0.094,0.846,2.162,1.692,3.008,0.47
				c0.846-1.598,0.329-17.999,1.363-21.006C14.438,36.761,10.866,36.009,9.832,36.385z"/>
			<path style="fill:#0FA5D7;" d="M10.02,37.137c0.089,0.327,1.222,3.196,4.229,4.887c2.538,1.316,2.914,3.572,3.102,5.545
				c0.188,1.974,0.188,13.722,0.376,14.098s1.786,1.88,3.759,0c0.188-5.451,0.282-23.121-0.094-25.377S9.738,36.103,10.02,37.137z"
				/>
		</g>
		<path style="fill:#0C98BB;" d="M10.684,39.048c0,0,2.693,2.356,10.855,1.094c0-0.252,0.084-0.841,0.084-0.841
			S14.891,40.815,10.684,39.048z"/>
		<g>
			<g>
				<path style="fill:#F5B697;" d="M22.451,40.638c0,0-0.235,1.222-0.235,1.927s0.705,0.047,0.705,0.047s0.188,1.833,0.564,2.115
					s1.269-0.329,1.457-1.786c0.188-1.457-0.282-3.102-0.94-3.431C23.344,39.181,22.451,40.638,22.451,40.638z"/>
				
					<linearGradient id="SVGID_4_" gradientUnits="userSpaceOnUse" x1="13.5335" y1="12.702" x2="14.9108" y2="6.0911" gradientTransform="matrix(1 0 0 -1 0 30)">
					<stop  offset="0" style="stop-color:#87CCFF"/>
					<stop  offset="1" style="stop-color:#55ACEE"/>
				</linearGradient>
				<path style="fill:url(#SVGID_4_);" d="M17.539,18.433c0,0,4.361,2.875,4.831,3.909s0.808,4.08-0.037,6.054
					s-0.282,9.117-0.564,10.527s-4.041,1.974-6.391,1.598s-5.535-0.766-5.535-3.492s0.084-9.008-0.104-10.23s-0.1-3.994,0.42-6.073
					C10.393,19.785,13.187,18.264,17.539,18.433z"/>
				<path style="fill:#3673B5;" d="M21.675,21.535c0,0,3.102,2.35,3.384,12.5c0,5.921-0.094,6.673-0.094,6.673
					s-1.786,1.692-2.726-0.094c0-2.162,0.376-8.083-0.564-11.842s-1.692-4.135-1.692-4.135s-0.617-0.806-0.715-1.59
					C19.092,21.652,20.684,20.699,21.675,21.535z"/>
				<path style="fill:#3673B5;" d="M10.158,20.725c0,0-2.461,3.345-3.219,7.51s2.254,8.057,2.254,8.057s1.515-1.388,0.631-2.777
					c0,0,0.292-4.871-0.076-7.507C9.651,25.301,9.568,22.941,10.158,20.725z"/>
			</g>
			<g>
				<path style="fill:#EBD9C1;" d="M13.686,17.963c0,0,0.013,0.054,0.003,0.142c-0.038,0.325-0.172,1.156-0.191,1.503
					c-0.018,0.332,0.376,0.893,1.269,0.846c0.893-0.047,2.397-0.47,2.867-1.551c-0.047-0.188-0.047-2.162,0.047-3.149L13.686,17.963
					z"/>
				<path style="fill:#FFF4E4;" d="M18.855,15.59c-0.69,2.097-2.608,2.82-3.665,3.172c-1.057,0.352-2.326,0.211-3.031-0.493
					c-0.705-0.705-1.339-3.877-0.916-6.626s2.538-4.37,5.005-3.877S20.758,9.81,18.855,15.59z"/>
				<path style="fill:#30599C;" d="M11.331,11.398c0,0-0.055-0.128-0.114-0.352c-0.119-0.453-0.058-1.585,0.224-2.544
					c0.421-1.43,2.44-2.524,5.89-1.094c1.287,0.534,2.311,1.679,2.529,2.911c0.204,1.155,0.179,3.349-0.257,4.135
					c-0.265,0.477-0.697,0.298-0.697,0.298s0.454-4.773-2.622-4.66C14.938,10.142,13.098,11.987,11.331,11.398z"/>
			</g>
		</g>
	</g>
</g>
</svg>
